M48
; DRILL file {KiCad 8.0.1} date 2024-09-05T16:14:20+0900
; FORMAT={-:-/ absolute / inch / decimal}
; #@! TF.CreationDate,2024-09-05T16:14:20+09:00
; #@! TF.GenerationSoftware,Kicad,Pcbnew,8.0.1
; #@! TF.FileFunction,Plated,1,2,PTH
FMAT,2
INCH
; #@! TA.AperFunction,Plated,PTH,ViaDrill
T1C0.0118
; #@! TA.AperFunction,Plated,PTH,ComponentDrill
T2C0.0197
; #@! TA.AperFunction,Plated,PTH,ComponentDrill
T3C0.0287
; #@! TA.AperFunction,Plated,PTH,ComponentDrill
T4C0.0300
; #@! TA.AperFunction,Plated,PTH,ComponentDrill
T5C0.0394
%
G90
G05
T1
X4.6652Y-3.4299
X4.8754Y-3.7738
X4.907Y-3.3385
X5.0299Y-3.4299
X5.2791Y-3.565
X6.4437Y-2.8199
T2
X6.3157Y-4.0748
X6.3157Y-4.1142
T3
X4.5264Y-3.5728
X4.5264Y-3.6319
X4.5264Y-3.6909
X4.5264Y-3.75
X4.5264Y-3.8091
X4.5264Y-3.8681
X4.5441Y-4.6457
X4.5441Y-4.7047
X4.5441Y-4.7638
X4.5441Y-4.8228
X4.5441Y-4.8819
X4.5441Y-4.9409
X5.3315Y-3.4843
X5.3315Y-4.9409
X5.3906Y-3.4843
X5.3906Y-4.9409
X5.4496Y-3.4843
X5.4496Y-4.9409
X5.5087Y-3.4843
X5.5087Y-4.9409
X5.5677Y-3.4843
X5.5677Y-4.9409
X5.6268Y-3.4843
X5.6268Y-4.9409
T4
X6.5323Y-4.7441
X6.5323Y-4.9409
X6.7488Y-4.7441
X6.7488Y-4.9409
T5
X4.5299Y-2.9315
X4.5299Y-3.0315
X4.6299Y-2.9315
X4.6299Y-3.0315
X4.7299Y-2.9315
X4.7299Y-3.0315
X4.8299Y-2.9315
X4.8299Y-3.0315
X4.9299Y-2.9315
X4.9299Y-3.0315
X5.0299Y-2.9315
X5.0299Y-3.0315
X5.1299Y-2.9315
X5.1299Y-3.0315
X5.2299Y-2.9315
X5.2299Y-3.0315
X5.3299Y-2.9315
X5.3299Y-3.0315
X5.4299Y-2.9315
X5.4299Y-3.0315
X5.5299Y-2.9315
X5.5299Y-3.0315
X5.6299Y-2.9315
X5.6299Y-3.0315
X5.7299Y-2.9315
X5.7299Y-3.0315
X5.8299Y-2.9315
X5.8299Y-3.0315
X5.9299Y-2.9315
X5.9299Y-3.0315
X6.0299Y-2.9315
X6.0299Y-3.0315
X6.1299Y-2.9315
X6.1299Y-3.0315
X6.2299Y-2.9315
X6.2299Y-3.0315
X6.3299Y-2.9315
X6.3299Y-3.0315
X6.4299Y-2.9315
X6.4299Y-3.0315
X6.7291Y-3.9142
X6.7291Y-4.0142
X6.7291Y-4.1142
M30
