%TF.GenerationSoftware,KiCad,Pcbnew,8.0.1*%
%TF.CreationDate,2024-09-05T17:17:53+09:00*%
%TF.ProjectId,Test2,54657374-322e-46b6-9963-61645f706362,rev?*%
%TF.SameCoordinates,Original*%
%TF.FileFunction,Soldermask,Bot*%
%TF.FilePolarity,Negative*%
%FSLAX46Y46*%
G04 Gerber Fmt 4.6, Leading zero omitted, Abs format (unit mm)*
G04 Created by KiCad (PCBNEW 8.0.1) date 2024-09-05 17:17:53*
%MOMM*%
%LPD*%
G01*
G04 APERTURE LIST*
G04 Aperture macros list*
%AMRoundRect*
0 Rectangle with rounded corners*
0 $1 Rounding radius*
0 $2 $3 $4 $5 $6 $7 $8 $9 X,Y pos of 4 corners*
0 Add a 4 corners polygon primitive as box body*
4,1,4,$2,$3,$4,$5,$6,$7,$8,$9,$2,$3,0*
0 Add four circle primitives for the rounded corners*
1,1,$1+$1,$2,$3*
1,1,$1+$1,$4,$5*
1,1,$1+$1,$6,$7*
1,1,$1+$1,$8,$9*
0 Add four rect primitives between the rounded corners*
20,1,$1+$1,$2,$3,$4,$5,0*
20,1,$1+$1,$4,$5,$6,$7,0*
20,1,$1+$1,$6,$7,$8,$9,0*
20,1,$1+$1,$8,$9,$2,$3,0*%
G04 Aperture macros list end*
%ADD10R,1.700000X1.700000*%
%ADD11O,1.700000X1.700000*%
%ADD12RoundRect,0.250000X0.615000X-0.265000X0.615000X0.265000X-0.615000X0.265000X-0.615000X-0.265000X0*%
%ADD13O,1.730000X1.030000*%
%ADD14C,1.524000*%
%ADD15RoundRect,0.250000X-0.265000X-0.615000X0.265000X-0.615000X0.265000X0.615000X-0.265000X0.615000X0*%
%ADD16O,1.030000X1.730000*%
%ADD17RoundRect,0.250000X0.265000X0.615000X-0.265000X0.615000X-0.265000X-0.615000X0.265000X-0.615000X0*%
G04 APERTURE END LIST*
D10*
%TO.C,J6*%
X131800000Y-125600000D03*
D11*
X131800000Y-128140000D03*
%TD*%
D10*
%TO.C,J1*%
X97080000Y-87100000D03*
D11*
X97080000Y-89640000D03*
X99620000Y-87100000D03*
X99620000Y-89640000D03*
X102160000Y-87100000D03*
X102160000Y-89640000D03*
X104700000Y-87100000D03*
X104700000Y-89640000D03*
X107240000Y-87100000D03*
X107240000Y-89640000D03*
X109780000Y-87100000D03*
X109780000Y-89640000D03*
X112320000Y-87100000D03*
X112320000Y-89640000D03*
X114860000Y-87100000D03*
X114860000Y-89640000D03*
X117400000Y-87100000D03*
X117400000Y-89640000D03*
X119940000Y-87100000D03*
X119940000Y-89640000D03*
X122480000Y-87100000D03*
X122480000Y-89640000D03*
X125020000Y-87100000D03*
X125020000Y-89640000D03*
X127560000Y-87100000D03*
X127560000Y-89640000D03*
X130100000Y-87100000D03*
X130100000Y-89640000D03*
X132640000Y-87100000D03*
X132640000Y-89640000D03*
X135180000Y-87100000D03*
X135180000Y-89640000D03*
X137720000Y-87100000D03*
X137720000Y-89640000D03*
X140260000Y-87100000D03*
X140260000Y-89640000D03*
X142800000Y-87100000D03*
X142800000Y-89640000D03*
X145340000Y-87100000D03*
X145340000Y-89640000D03*
%TD*%
D12*
%TO.C,J2*%
X97400000Y-108000000D03*
D13*
X97400000Y-106500000D03*
X97400000Y-105000000D03*
X97400000Y-103500000D03*
X97400000Y-102000000D03*
X97400000Y-100500000D03*
%TD*%
D14*
%TO.C,SW1*%
X140000000Y-105400000D03*
X140000000Y-110400000D03*
X145500000Y-110400000D03*
X145500000Y-105400000D03*
%TD*%
D15*
%TO.C,S1*%
X111900000Y-100500000D03*
D16*
X113400000Y-100500000D03*
X114900000Y-100500000D03*
X116400000Y-100500000D03*
X117900000Y-100500000D03*
X119400000Y-100500000D03*
%TD*%
D17*
%TO.C,J4*%
X119500000Y-128200000D03*
D16*
X118000000Y-128200000D03*
X116500000Y-128200000D03*
X115000000Y-128200000D03*
X113500000Y-128200000D03*
X112000000Y-128200000D03*
%TD*%
D10*
%TO.C,M1*%
X140560000Y-127900000D03*
D11*
X143100000Y-127900000D03*
X145640000Y-127900000D03*
%TD*%
D12*
%TO.C,J3*%
X97300000Y-128000000D03*
D13*
X97300000Y-126500000D03*
X97300000Y-125000000D03*
X97300000Y-123500000D03*
X97300000Y-122000000D03*
X97300000Y-120500000D03*
%TD*%
M02*
