%TF.GenerationSoftware,KiCad,Pcbnew,8.0.1*%
%TF.CreationDate,2024-09-05T17:17:53+09:00*%
%TF.ProjectId,Test2,54657374-322e-46b6-9963-61645f706362,rev?*%
%TF.SameCoordinates,Original*%
%TF.FileFunction,Copper,L2,Bot*%
%TF.FilePolarity,Positive*%
%FSLAX46Y46*%
G04 Gerber Fmt 4.6, Leading zero omitted, Abs format (unit mm)*
G04 Created by KiCad (PCBNEW 8.0.1) date 2024-09-05 17:17:53*
%MOMM*%
%LPD*%
G01*
G04 APERTURE LIST*
G04 Aperture macros list*
%AMRoundRect*
0 Rectangle with rounded corners*
0 $1 Rounding radius*
0 $2 $3 $4 $5 $6 $7 $8 $9 X,Y pos of 4 corners*
0 Add a 4 corners polygon primitive as box body*
4,1,4,$2,$3,$4,$5,$6,$7,$8,$9,$2,$3,0*
0 Add four circle primitives for the rounded corners*
1,1,$1+$1,$2,$3*
1,1,$1+$1,$4,$5*
1,1,$1+$1,$6,$7*
1,1,$1+$1,$8,$9*
0 Add four rect primitives between the rounded corners*
20,1,$1+$1,$2,$3,$4,$5,0*
20,1,$1+$1,$4,$5,$6,$7,0*
20,1,$1+$1,$6,$7,$8,$9,0*
20,1,$1+$1,$8,$9,$2,$3,0*%
G04 Aperture macros list end*
%TA.AperFunction,ComponentPad*%
%ADD10R,1.700000X1.700000*%
%TD*%
%TA.AperFunction,ComponentPad*%
%ADD11O,1.700000X1.700000*%
%TD*%
%TA.AperFunction,ComponentPad*%
%ADD12RoundRect,0.250000X0.615000X-0.265000X0.615000X0.265000X-0.615000X0.265000X-0.615000X-0.265000X0*%
%TD*%
%TA.AperFunction,ComponentPad*%
%ADD13O,1.730000X1.030000*%
%TD*%
%TA.AperFunction,ComponentPad*%
%ADD14C,1.524000*%
%TD*%
%TA.AperFunction,ComponentPad*%
%ADD15RoundRect,0.250000X-0.265000X-0.615000X0.265000X-0.615000X0.265000X0.615000X-0.265000X0.615000X0*%
%TD*%
%TA.AperFunction,ComponentPad*%
%ADD16O,1.030000X1.730000*%
%TD*%
%TA.AperFunction,ComponentPad*%
%ADD17RoundRect,0.250000X0.265000X0.615000X-0.265000X0.615000X-0.265000X-0.615000X0.265000X-0.615000X0*%
%TD*%
%TA.AperFunction,ViaPad*%
%ADD18C,0.600000*%
%TD*%
%TA.AperFunction,Conductor*%
%ADD19C,0.300000*%
%TD*%
G04 APERTURE END LIST*
D10*
%TO.P,J6,1,Pin_1*%
%TO.N,Net-(J2-Pin_2)*%
X131800000Y-125600000D03*
D11*
%TO.P,J6,2,Pin_2*%
%TO.N,Net-(J2-Pin_1)*%
X131800000Y-128140000D03*
%TD*%
D10*
%TO.P,J1,1,3V3*%
%TO.N,Net-(J1-3V3-Pad1)*%
X97080000Y-87100000D03*
D11*
%TO.P,J1,2,5V*%
%TO.N,Net-(J2-Pin_1)*%
X97080000Y-89640000D03*
%TO.P,J1,3,SDA/GPIO2*%
%TO.N,Net-(J1-SDA{slash}GPIO2)*%
X99620000Y-87100000D03*
%TO.P,J1,4,5V*%
%TO.N,Net-(J2-Pin_1)*%
X99620000Y-89640000D03*
%TO.P,J1,5,SCL/GPIO3*%
%TO.N,Net-(J1-SCL{slash}GPIO3)*%
X102160000Y-87100000D03*
%TO.P,J1,6,GND*%
%TO.N,Net-(J2-Pin_2)*%
X102160000Y-89640000D03*
%TO.P,J1,7,GCLK0/GPIO4*%
%TO.N,Net-(J1-GCLK0{slash}GPIO4)*%
X104700000Y-87100000D03*
%TO.P,J1,8,GPIO14/TXD*%
%TO.N,unconnected-(J1-GPIO14{slash}TXD-Pad8)*%
X104700000Y-89640000D03*
%TO.P,J1,9,GND*%
%TO.N,Net-(J2-Pin_2)*%
X107240000Y-87100000D03*
%TO.P,J1,10,GPIO15/RXD*%
%TO.N,unconnected-(J1-GPIO15{slash}RXD-Pad10)*%
X107240000Y-89640000D03*
%TO.P,J1,11,GPIO17*%
%TO.N,Net-(J1-GPIO17)*%
X109780000Y-87100000D03*
%TO.P,J1,12,GPIO18/PWM0*%
%TO.N,unconnected-(J1-GPIO18{slash}PWM0-Pad12)*%
X109780000Y-89640000D03*
%TO.P,J1,13,GPIO27*%
%TO.N,Net-(J1-GPIO27)*%
X112320000Y-87100000D03*
%TO.P,J1,14,GND*%
%TO.N,Net-(J2-Pin_2)*%
X112320000Y-89640000D03*
%TO.P,J1,15,GPIO22*%
%TO.N,Net-(J1-GPIO22)*%
X114860000Y-87100000D03*
%TO.P,J1,16,GPIO23*%
%TO.N,Net-(J1-GPIO23)*%
X114860000Y-89640000D03*
%TO.P,J1,17,3V3*%
%TO.N,Net-(J1-3V3-Pad1)*%
X117400000Y-87100000D03*
%TO.P,J1,18,GPIO24*%
%TO.N,unconnected-(J1-GPIO24-Pad18)*%
X117400000Y-89640000D03*
%TO.P,J1,19,MOSI0/GPIO10*%
%TO.N,unconnected-(J1-MOSI0{slash}GPIO10-Pad19)*%
X119940000Y-87100000D03*
%TO.P,J1,20,GND*%
%TO.N,Net-(J2-Pin_2)*%
X119940000Y-89640000D03*
%TO.P,J1,21,MISO0/GPIO9*%
%TO.N,unconnected-(J1-MISO0{slash}GPIO9-Pad21)*%
X122480000Y-87100000D03*
%TO.P,J1,22,GPIO25*%
%TO.N,unconnected-(J1-GPIO25-Pad22)*%
X122480000Y-89640000D03*
%TO.P,J1,23,SCLK0/GPIO11*%
%TO.N,unconnected-(J1-SCLK0{slash}GPIO11-Pad23)*%
X125020000Y-87100000D03*
%TO.P,J1,24,~{CE0}/GPIO8*%
%TO.N,Net-(J1-~{CE0}{slash}GPIO8)*%
X125020000Y-89640000D03*
%TO.P,J1,25,GND*%
%TO.N,Net-(J2-Pin_2)*%
X127560000Y-87100000D03*
%TO.P,J1,26,~{CE1}/GPIO7*%
%TO.N,unconnected-(J1-~{CE1}{slash}GPIO7-Pad26)*%
X127560000Y-89640000D03*
%TO.P,J1,27,ID_SD/GPIO0*%
%TO.N,unconnected-(J1-ID_SD{slash}GPIO0-Pad27)*%
X130100000Y-87100000D03*
%TO.P,J1,28,ID_SC/GPIO1*%
%TO.N,unconnected-(J1-ID_SC{slash}GPIO1-Pad28)*%
X130100000Y-89640000D03*
%TO.P,J1,29,GCLK1/GPIO5*%
%TO.N,unconnected-(J1-GCLK1{slash}GPIO5-Pad29)*%
X132640000Y-87100000D03*
%TO.P,J1,30,GND*%
%TO.N,Net-(J2-Pin_2)*%
X132640000Y-89640000D03*
%TO.P,J1,31,GCLK2/GPIO6*%
%TO.N,unconnected-(J1-GCLK2{slash}GPIO6-Pad31)*%
X135180000Y-87100000D03*
%TO.P,J1,32,PWM0/GPIO12*%
%TO.N,unconnected-(J1-PWM0{slash}GPIO12-Pad32)*%
X135180000Y-89640000D03*
%TO.P,J1,33,PWM1/GPIO13*%
%TO.N,unconnected-(J1-PWM1{slash}GPIO13-Pad33)*%
X137720000Y-87100000D03*
%TO.P,J1,34,GND*%
%TO.N,Net-(J2-Pin_2)*%
X137720000Y-89640000D03*
%TO.P,J1,35,GPIO19/MISO1*%
%TO.N,unconnected-(J1-GPIO19{slash}MISO1-Pad35)*%
X140260000Y-87100000D03*
%TO.P,J1,36,GPIO16*%
%TO.N,unconnected-(J1-GPIO16-Pad36)*%
X140260000Y-89640000D03*
%TO.P,J1,37,GPIO26*%
%TO.N,unconnected-(J1-GPIO26-Pad37)*%
X142800000Y-87100000D03*
%TO.P,J1,38,GPIO20/MOSI1*%
%TO.N,unconnected-(J1-GPIO20{slash}MOSI1-Pad38)*%
X142800000Y-89640000D03*
%TO.P,J1,39,GND*%
%TO.N,Net-(J2-Pin_2)*%
X145340000Y-87100000D03*
%TO.P,J1,40,GPIO21/SCLK1*%
%TO.N,unconnected-(J1-GPIO21{slash}SCLK1-Pad40)*%
X145340000Y-89640000D03*
%TD*%
D12*
%TO.P,J2,1,Pin_1*%
%TO.N,Net-(J2-Pin_1)*%
X97400000Y-108000000D03*
D13*
%TO.P,J2,2,Pin_2*%
%TO.N,Net-(J2-Pin_2)*%
X97400000Y-106500000D03*
%TO.P,J2,3,Pin_3*%
%TO.N,Net-(J1-SDA{slash}GPIO2)*%
X97400000Y-105000000D03*
%TO.P,J2,4,Pin_4*%
%TO.N,Net-(J1-SCL{slash}GPIO3)*%
X97400000Y-103500000D03*
%TO.P,J2,5,Pin_5*%
%TO.N,Net-(J1-GPIO17)*%
X97400000Y-102000000D03*
%TO.P,J2,6,Pin_6*%
%TO.N,unconnected-(J2-Pin_6-Pad6)*%
X97400000Y-100500000D03*
%TD*%
D14*
%TO.P,SW1,1,1*%
%TO.N,Net-(J1-3V3-Pad1)*%
X140000000Y-105400000D03*
%TO.P,SW1,2,2*%
%TO.N,Net-(R1-Pad1)*%
X140000000Y-110400000D03*
%TO.P,SW1,3*%
%TO.N,N/C*%
X145500000Y-110400000D03*
%TO.P,SW1,4*%
X145500000Y-105400000D03*
%TD*%
D15*
%TO.P,S1,1,Pin_1*%
%TO.N,Net-(J2-Pin_1)*%
X111900000Y-100500000D03*
D16*
%TO.P,S1,2,Pin_2*%
%TO.N,Net-(J2-Pin_2)*%
X113400000Y-100500000D03*
%TO.P,S1,3,Pin_3*%
%TO.N,Net-(J1-SDA{slash}GPIO2)*%
X114900000Y-100500000D03*
%TO.P,S1,4,Pin_4*%
%TO.N,Net-(J1-SCL{slash}GPIO3)*%
X116400000Y-100500000D03*
%TO.P,S1,5,Pin_5*%
%TO.N,Net-(J1-GCLK0{slash}GPIO4)*%
X117900000Y-100500000D03*
%TO.P,S1,6,Pin_6*%
%TO.N,unconnected-(S1-Pin_6-Pad6)*%
X119400000Y-100500000D03*
%TD*%
D17*
%TO.P,J4,1,Pin_1*%
%TO.N,Net-(J2-Pin_1)*%
X119500000Y-128200000D03*
D16*
%TO.P,J4,2,Pin_2*%
%TO.N,Net-(J2-Pin_2)*%
X118000000Y-128200000D03*
%TO.P,J4,3,Pin_3*%
%TO.N,Net-(J1-SDA{slash}GPIO2)*%
X116500000Y-128200000D03*
%TO.P,J4,4,Pin_4*%
%TO.N,Net-(J1-SCL{slash}GPIO3)*%
X115000000Y-128200000D03*
%TO.P,J4,5,Pin_5*%
%TO.N,Net-(J1-GPIO22)*%
X113500000Y-128200000D03*
%TO.P,J4,6,Pin_6*%
%TO.N,unconnected-(J4-Pin_6-Pad6)*%
X112000000Y-128200000D03*
%TD*%
D10*
%TO.P,M1,1,PWM*%
%TO.N,Net-(J1-GPIO23)*%
X140560000Y-127900000D03*
D11*
%TO.P,M1,2,+*%
%TO.N,Net-(J2-Pin_1)*%
X143100000Y-127900000D03*
%TO.P,M1,3,-*%
%TO.N,Net-(J2-Pin_2)*%
X145640000Y-127900000D03*
%TD*%
D12*
%TO.P,J3,1,Pin_1*%
%TO.N,Net-(J2-Pin_1)*%
X97300000Y-128000000D03*
D13*
%TO.P,J3,2,Pin_2*%
%TO.N,Net-(J2-Pin_2)*%
X97300000Y-126500000D03*
%TO.P,J3,3,Pin_3*%
%TO.N,Net-(J1-SDA{slash}GPIO2)*%
X97300000Y-125000000D03*
%TO.P,J3,4,Pin_4*%
%TO.N,Net-(J1-SCL{slash}GPIO3)*%
X97300000Y-123500000D03*
%TO.P,J3,5,Pin_5*%
%TO.N,Net-(J1-GPIO27)*%
X97300000Y-122000000D03*
%TO.P,J3,6,Pin_6*%
%TO.N,unconnected-(J3-Pin_6-Pad6)*%
X97300000Y-120500000D03*
%TD*%
D18*
%TO.N,Net-(R1-Pad1)*%
X133261100Y-111748000D03*
%TO.N,Net-(J1-SDA{slash}GPIO2)*%
X113825000Y-104626200D03*
%TO.N,Net-(J1-~{CE0}{slash}GPIO8)*%
X126831100Y-102718000D03*
%TO.N,Net-(J1-GPIO27)*%
X110142100Y-108831600D03*
%TO.N,Net-(J2-Pin_1)*%
X110714100Y-106145700D03*
%TO.N,Net-(J2-Pin_2)*%
X113400000Y-105888900D03*
X115550000Y-84642400D03*
%TO.N,Net-(J1-3V3-Pad1)*%
X108663500Y-103517000D03*
%TO.N,Net-(J1-GPIO17)*%
X95615400Y-93209700D03*
%TD*%
D19*
%TO.N,Net-(R1-Pad1)*%
X134609100Y-110400000D02*
X133261100Y-111748000D01*
X140000000Y-110400000D02*
X134609100Y-110400000D01*
%TO.N,Net-(J1-SDA{slash}GPIO2)*%
X101051900Y-125000000D02*
X97300000Y-125000000D01*
X106010700Y-129958800D02*
X101051900Y-125000000D01*
X108616700Y-129958800D02*
X106010700Y-129958800D01*
X108618200Y-129957300D02*
X108616700Y-129958800D01*
X115525500Y-129957300D02*
X108618200Y-129957300D01*
X116500000Y-128982800D02*
X115525500Y-129957300D01*
X116500000Y-128200000D02*
X116500000Y-128982800D01*
X99620000Y-86669800D02*
X99620000Y-87100000D01*
X98348500Y-85398300D02*
X99620000Y-86669800D01*
X95866100Y-85398300D02*
X98348500Y-85398300D01*
X95378300Y-85886100D02*
X95866100Y-85398300D01*
X95378300Y-90361400D02*
X95378300Y-85886100D01*
X107180500Y-102163600D02*
X95378300Y-90361400D01*
X110310600Y-102163600D02*
X107180500Y-102163600D01*
X110391200Y-102244200D02*
X110310600Y-102163600D01*
X114012700Y-102244200D02*
X110391200Y-102244200D01*
X114900000Y-101356900D02*
X114012700Y-102244200D01*
X114900000Y-100500000D02*
X114900000Y-101356900D01*
X108615200Y-104626200D02*
X113825000Y-104626200D01*
X108241400Y-105000000D02*
X108615200Y-104626200D01*
X97400000Y-105000000D02*
X108241400Y-105000000D01*
%TO.N,Net-(J1-GCLK0{slash}GPIO4)*%
X102355800Y-84755800D02*
X104700000Y-87100000D01*
X95650500Y-84755800D02*
X102355800Y-84755800D01*
X94776500Y-85629800D02*
X95650500Y-84755800D01*
X94776500Y-90629400D02*
X94776500Y-85629800D01*
X106912400Y-102765300D02*
X94776500Y-90629400D01*
X110061400Y-102765300D02*
X106912400Y-102765300D01*
X110170000Y-102873900D02*
X110061400Y-102765300D01*
X116384200Y-102873900D02*
X110170000Y-102873900D01*
X117900000Y-101358100D02*
X116384200Y-102873900D01*
X117900000Y-100500000D02*
X117900000Y-101358100D01*
%TO.N,Net-(J1-~{CE0}{slash}GPIO8)*%
X126831000Y-102718000D02*
X126831100Y-102718000D01*
X126831000Y-91451000D02*
X126831000Y-102718000D01*
X125020000Y-89640000D02*
X126831000Y-91451000D01*
%TO.N,Net-(J1-GPIO27)*%
X110142100Y-109956800D02*
X110142100Y-108831600D01*
X98098900Y-122000000D02*
X110142100Y-109956800D01*
X97300000Y-122000000D02*
X98098900Y-122000000D01*
%TO.N,Net-(J1-SCL{slash}GPIO3)*%
X115000000Y-127342400D02*
X115000000Y-128200000D01*
X111157600Y-123500000D02*
X115000000Y-127342400D01*
X97300000Y-123500000D02*
X111157600Y-123500000D01*
%TO.N,Net-(J2-Pin_1)*%
X110480000Y-100500000D02*
X99620000Y-89640000D01*
X111900000Y-100500000D02*
X110480000Y-100500000D01*
X99620000Y-89640000D02*
X97080000Y-89640000D01*
X136920000Y-128140000D02*
X131800000Y-128140000D01*
X138861700Y-126198300D02*
X136920000Y-128140000D01*
X141762800Y-126198300D02*
X138861700Y-126198300D01*
X143100000Y-127535500D02*
X141762800Y-126198300D01*
X143100000Y-127900000D02*
X143100000Y-127535500D01*
X119560000Y-128140000D02*
X119500000Y-128200000D01*
X131800000Y-128140000D02*
X119560000Y-128140000D01*
X99870200Y-130570200D02*
X97300000Y-128000000D01*
X117928000Y-130570200D02*
X99870200Y-130570200D01*
X119500000Y-128998200D02*
X117928000Y-130570200D01*
X119500000Y-128200000D02*
X119500000Y-128998200D01*
X95556100Y-109843900D02*
X97400000Y-108000000D01*
X95556100Y-127090200D02*
X95556100Y-109843900D01*
X96465900Y-128000000D02*
X95556100Y-127090200D01*
X97300000Y-128000000D02*
X96465900Y-128000000D01*
X108859800Y-108000000D02*
X110714100Y-106145700D01*
X97400000Y-108000000D02*
X108859800Y-108000000D01*
%TO.N,Net-(J2-Pin_2)*%
X103904400Y-91384400D02*
X102160000Y-89640000D01*
X110575600Y-91384400D02*
X103904400Y-91384400D01*
X112320000Y-89640000D02*
X110575600Y-91384400D01*
X113400000Y-92044000D02*
X114062000Y-91382000D01*
X113400000Y-100500000D02*
X113400000Y-92044000D01*
X118198000Y-91382000D02*
X114062000Y-91382000D01*
X119940000Y-89640000D02*
X118198000Y-91382000D01*
X114062000Y-91382000D02*
X112320000Y-89640000D01*
X112905000Y-105393900D02*
X113400000Y-105888900D01*
X110401300Y-105393900D02*
X112905000Y-105393900D01*
X109295200Y-106500000D02*
X110401300Y-105393900D01*
X97400000Y-106500000D02*
X109295200Y-106500000D01*
X131804700Y-125595300D02*
X131800000Y-125600000D01*
X143335300Y-125595300D02*
X131804700Y-125595300D01*
X145640000Y-127900000D02*
X143335300Y-125595300D01*
X119639000Y-112127900D02*
X113400000Y-105888900D01*
X119639000Y-125600000D02*
X119639000Y-112127900D01*
X131800000Y-125600000D02*
X119639000Y-125600000D01*
X118000000Y-127239000D02*
X118000000Y-128200000D01*
X119639000Y-125600000D02*
X118000000Y-127239000D01*
X109697600Y-84642400D02*
X107240000Y-87100000D01*
X115550000Y-84642400D02*
X109697600Y-84642400D01*
X136013500Y-91346500D02*
X137720000Y-89640000D01*
X134346500Y-91346500D02*
X136013500Y-91346500D01*
X132640000Y-89640000D02*
X134346500Y-91346500D01*
X147050500Y-88810500D02*
X145340000Y-87100000D01*
X147050500Y-90358300D02*
X147050500Y-88810500D01*
X146048400Y-91360400D02*
X147050500Y-90358300D01*
X139440400Y-91360400D02*
X146048400Y-91360400D01*
X137720000Y-89640000D02*
X139440400Y-91360400D01*
%TO.N,Net-(J1-3V3-Pad1)*%
X140000000Y-105006800D02*
X138510200Y-103517000D01*
X140000000Y-105400000D02*
X140000000Y-105006800D01*
X138510200Y-103517000D02*
X108663500Y-103517000D01*
X119117300Y-85382700D02*
X117400000Y-87100000D01*
X146051200Y-85382700D02*
X119117300Y-85382700D01*
X147660900Y-86992400D02*
X146051200Y-85382700D01*
X147660900Y-87689100D02*
X147660900Y-86992400D01*
X147662400Y-87690600D02*
X147660900Y-87689100D01*
X147662400Y-89609500D02*
X147662400Y-87690600D01*
X147660900Y-89611000D02*
X147662400Y-89609500D01*
X147660900Y-94366300D02*
X147660900Y-89611000D01*
X138510200Y-103517000D02*
X147660900Y-94366300D01*
%TO.N,Net-(J1-GPIO17)*%
X95615400Y-101065500D02*
X95615400Y-93209700D01*
X96549900Y-102000000D02*
X95615400Y-101065500D01*
X97400000Y-102000000D02*
X96549900Y-102000000D01*
%TD*%
M02*
