M48
; DRILL file {KiCad 8.0.1} date 2024-10-12T17:53:39+0900
; FORMAT={-:-/ absolute / inch / decimal}
; #@! TF.CreationDate,2024-10-12T17:53:39+09:00
; #@! TF.GenerationSoftware,Kicad,Pcbnew,8.0.1
; #@! TF.FileFunction,Plated,1,2,PTH
FMAT,2
INCH
; #@! TA.AperFunction,Plated,PTH,ViaDrill
T1C0.0118
; #@! TA.AperFunction,Plated,PTH,ComponentDrill
T2C0.0300
; #@! TA.AperFunction,Plated,PTH,ComponentDrill
T3C0.0394
%
G90
G05
T1
X-0.0856Y1.7526
X-0.0763Y1.6399
X-0.0011Y1.6956
X0.0609Y1.7741
X0.5943Y0.9379
X1.0612Y1.0786
T2
X0.0878Y0.9646
X0.0969Y0.6693
X0.1878Y0.9646
X0.1969Y0.6693
X0.3724Y0.9606
X0.3724Y0.6693
X0.4724Y0.9606
X0.4724Y0.6693
T3
X-0.4333Y0.8695
X-0.4333Y0.7695
X-0.4333Y0.6695
X-0.4333Y0.5695
X-0.4333Y0.4695
X-0.4333Y0.3695
X-0.4331Y1.9398
X-0.4331Y1.8398
X-0.4323Y1.5825
X-0.4323Y1.4825
X-0.4323Y1.3825
X-0.4323Y1.2825
X-0.4323Y1.1825
X-0.4323Y1.0825
X-0.3331Y1.9398
X-0.3331Y1.8398
X-0.2331Y1.9398
X-0.2331Y1.8398
X-0.1331Y1.9398
X-0.1331Y1.8398
X-0.0331Y1.9398
X-0.0331Y1.8398
X0.0669Y1.9398
X0.0669Y1.8398
X0.1064Y0.0908
X0.1187Y1.5835
X0.1669Y1.9398
X0.1669Y1.8398
X0.2064Y0.0908
X0.2187Y1.5835
X0.2669Y1.9398
X0.2669Y1.8398
X0.3064Y0.0908
X0.3187Y1.5835
X0.3669Y1.9398
X0.3669Y1.8398
X0.4064Y0.0908
X0.4187Y1.5835
X0.4669Y1.9398
X0.4669Y1.8398
X0.5064Y0.0908
X0.5187Y1.5835
X0.5669Y1.9398
X0.5669Y1.8398
X0.6064Y0.0908
X0.6187Y1.5835
X0.6669Y1.9398
X0.6669Y1.8398
X0.7669Y1.9398
X0.7669Y1.8398
X0.7756Y0.2441
X0.7756Y0.1441
X0.8669Y1.9398
X0.8669Y1.8398
X0.9669Y1.9398
X0.9669Y1.8398
X1.0669Y1.9398
X1.0669Y1.8398
X1.1669Y1.9398
X1.1669Y1.8398
X1.2425Y0.2598
X1.2669Y1.9398
X1.2669Y1.8398
X1.3425Y0.2598
X1.3669Y1.9398
X1.3669Y1.8398
X1.4425Y0.2598
X1.4669Y1.9398
X1.4669Y1.8398
M30
