%TF.GenerationSoftware,KiCad,Pcbnew,8.0.1*%
%TF.CreationDate,2024-10-12T17:53:39+09:00*%
%TF.ProjectId,Test2,54657374-322e-46b6-9963-61645f706362,rev?*%
%TF.SameCoordinates,Original*%
%TF.FileFunction,Legend,Bot*%
%TF.FilePolarity,Positive*%
%FSLAX46Y46*%
G04 Gerber Fmt 4.6, Leading zero omitted, Abs format (unit mm)*
G04 Created by KiCad (PCBNEW 8.0.1) date 2024-10-12 17:53:39*
%MOMM*%
%LPD*%
G01*
G04 APERTURE LIST*
%ADD10C,0.120000*%
%ADD11R,1.700000X1.700000*%
%ADD12O,1.700000X1.700000*%
%ADD13C,1.524000*%
%ADD14C,2.700000*%
G04 APERTURE END LIST*
D10*
%TO.C,J1*%
X-12330000Y48000000D02*
X-12330000Y50600000D01*
X-12330000Y45400000D02*
X-12330000Y46730000D01*
X-11000000Y45400000D02*
X-12330000Y45400000D01*
X-9730000Y48000000D02*
X-12330000Y48000000D01*
X-9730000Y45400000D02*
X-9730000Y48000000D01*
X38590000Y50600000D02*
X-12330000Y50600000D01*
X38590000Y45400000D02*
X-9730000Y45400000D01*
X38590000Y45400000D02*
X38590000Y50600000D01*
%TD*%
%LPC*%
D11*
%TO.C,J1_GPIO4*%
X15714000Y40220400D03*
D12*
X13174000Y40220400D03*
X10634000Y40220400D03*
X8094000Y40220400D03*
X5554000Y40220400D03*
X3014000Y40220400D03*
%TD*%
D11*
%TO.C,J2_GPIO17*%
X-10981400Y40195000D03*
D12*
X-10981400Y37655000D03*
X-10981400Y35115000D03*
X-10981400Y32575000D03*
X-10981400Y30035000D03*
X-10981400Y27495000D03*
%TD*%
%TO.C,J3_GPIO27*%
X-11006800Y9384800D03*
X-11006800Y11924800D03*
X-11006800Y14464800D03*
X-11006800Y17004800D03*
X-11006800Y19544800D03*
D11*
X-11006800Y22084800D03*
%TD*%
%TO.C,J4_GPIO22*%
X2702100Y2305600D03*
D12*
X5242100Y2305600D03*
X7782100Y2305600D03*
X10322100Y2305600D03*
X12862100Y2305600D03*
X15402100Y2305600D03*
%TD*%
D11*
%TO.C,Fan1*%
X19700000Y6200000D03*
D12*
X19700000Y3660000D03*
%TD*%
D13*
%TO.C,D1*%
X2230000Y24500000D03*
X4770000Y24500000D03*
%TD*%
D14*
%TO.C,REF1*%
X-16000000Y48000000D03*
%TD*%
D13*
%TO.C,D4*%
X9460000Y17000000D03*
X12000000Y17000000D03*
%TD*%
%TO.C,D2*%
X2460000Y17000000D03*
X5000000Y17000000D03*
%TD*%
D14*
%TO.C,REF\u002A\u002A*%
X-16000000Y-1000000D03*
%TD*%
D11*
%TO.C,M1_GPIO23*%
X31560000Y6600000D03*
D12*
X34100000Y6600000D03*
X36640000Y6600000D03*
%TD*%
D13*
%TO.C,D3*%
X9460000Y24400000D03*
X12000000Y24400000D03*
%TD*%
D11*
%TO.C,J1*%
X-11000000Y46730000D03*
D12*
X-11000000Y49270000D03*
X-8460000Y46730000D03*
X-8460000Y49270000D03*
X-5920000Y46730000D03*
X-5920000Y49270000D03*
X-3380000Y46730000D03*
X-3380000Y49270000D03*
X-840000Y46730000D03*
X-840000Y49270000D03*
X1700000Y46730000D03*
X1700000Y49270000D03*
X4240000Y46730000D03*
X4240000Y49270000D03*
X6780000Y46730000D03*
X6780000Y49270000D03*
X9320000Y46730000D03*
X9320000Y49270000D03*
X11860000Y46730000D03*
X11860000Y49270000D03*
X14400000Y46730000D03*
X14400000Y49270000D03*
X16940000Y46730000D03*
X16940000Y49270000D03*
X19480000Y46730000D03*
X19480000Y49270000D03*
X22020000Y46730000D03*
X22020000Y49270000D03*
X24560000Y46730000D03*
X24560000Y49270000D03*
X27100000Y46730000D03*
X27100000Y49270000D03*
X29640000Y46730000D03*
X29640000Y49270000D03*
X32180000Y46730000D03*
X32180000Y49270000D03*
X34720000Y46730000D03*
X34720000Y49270000D03*
X37260000Y46730000D03*
X37260000Y49270000D03*
%TD*%
%LPD*%
M02*
