%TF.GenerationSoftware,KiCad,Pcbnew,8.0.1*%
%TF.CreationDate,2024-09-23T21:20:22+09:00*%
%TF.ProjectId,Test2,54657374-322e-46b6-9963-61645f706362,rev?*%
%TF.SameCoordinates,Original*%
%TF.FileFunction,Copper,L2,Bot*%
%TF.FilePolarity,Positive*%
%FSLAX46Y46*%
G04 Gerber Fmt 4.6, Leading zero omitted, Abs format (unit mm)*
G04 Created by KiCad (PCBNEW 8.0.1) date 2024-09-23 21:20:22*
%MOMM*%
%LPD*%
G01*
G04 APERTURE LIST*
G04 Aperture macros list*
%AMRoundRect*
0 Rectangle with rounded corners*
0 $1 Rounding radius*
0 $2 $3 $4 $5 $6 $7 $8 $9 X,Y pos of 4 corners*
0 Add a 4 corners polygon primitive as box body*
4,1,4,$2,$3,$4,$5,$6,$7,$8,$9,$2,$3,0*
0 Add four circle primitives for the rounded corners*
1,1,$1+$1,$2,$3*
1,1,$1+$1,$4,$5*
1,1,$1+$1,$6,$7*
1,1,$1+$1,$8,$9*
0 Add four rect primitives between the rounded corners*
20,1,$1+$1,$2,$3,$4,$5,0*
20,1,$1+$1,$4,$5,$6,$7,0*
20,1,$1+$1,$6,$7,$8,$9,0*
20,1,$1+$1,$8,$9,$2,$3,0*%
G04 Aperture macros list end*
%TA.AperFunction,ComponentPad*%
%ADD10R,1.700000X1.700000*%
%TD*%
%TA.AperFunction,ComponentPad*%
%ADD11O,1.700000X1.700000*%
%TD*%
%TA.AperFunction,ComponentPad*%
%ADD12O,1.730000X1.030000*%
%TD*%
%TA.AperFunction,ComponentPad*%
%ADD13RoundRect,0.250000X0.615000X-0.265000X0.615000X0.265000X-0.615000X0.265000X-0.615000X-0.265000X0*%
%TD*%
%TA.AperFunction,ComponentPad*%
%ADD14RoundRect,0.250000X-0.265000X-0.615000X0.265000X-0.615000X0.265000X0.615000X-0.265000X0.615000X0*%
%TD*%
%TA.AperFunction,ComponentPad*%
%ADD15O,1.030000X1.730000*%
%TD*%
%TA.AperFunction,ComponentPad*%
%ADD16RoundRect,0.250000X0.265000X0.615000X-0.265000X0.615000X-0.265000X-0.615000X0.265000X-0.615000X0*%
%TD*%
%TA.AperFunction,ViaPad*%
%ADD17C,0.600000*%
%TD*%
%TA.AperFunction,Conductor*%
%ADD18C,0.200000*%
%TD*%
%TA.AperFunction,Conductor*%
%ADD19C,0.300000*%
%TD*%
G04 APERTURE END LIST*
D10*
%TO.P,Fan1,1,Pin_1*%
%TO.N,Net-(Fan1-Pin_1)*%
X131800000Y-122100000D03*
D11*
%TO.P,Fan1,2,Pin_2*%
%TO.N,Net-(Fan1-Pin_2)*%
X131800000Y-124640000D03*
%TD*%
D12*
%TO.P,J2_GPIO17,6,Pin_6*%
%TO.N,Net-(J1-GPIO17)*%
X100000000Y-92500000D03*
%TO.P,J2_GPIO17,5,Pin_5*%
%TO.N,Net-(J1-SCL{slash}GPIO3)*%
X100000000Y-94000000D03*
%TO.P,J2_GPIO17,4,Pin_4*%
%TO.N,Net-(J1-SDA{slash}GPIO2)*%
X100000000Y-95500000D03*
%TO.P,J2_GPIO17,3,Pin_3*%
%TO.N,Net-(Fan1-Pin_1)*%
X100000000Y-97000000D03*
%TO.P,J2_GPIO17,2,Pin_2*%
%TO.N,Net-(Fan1-Pin_2)*%
X100000000Y-98500000D03*
D13*
%TO.P,J2_GPIO17,1,Pin_1*%
%TO.N,unconnected-(J2_GPIO17-Pin_1-Pad1)*%
X100000000Y-100000000D03*
%TD*%
D14*
%TO.P,J1_GPIO4,1,Pin_1*%
%TO.N,unconnected-(J1_GPIO4-Pin_1-Pad1)*%
X112500000Y-92000000D03*
D15*
%TO.P,J1_GPIO4,2,Pin_2*%
%TO.N,Net-(Fan1-Pin_2)*%
X114000000Y-92000000D03*
%TO.P,J1_GPIO4,3,Pin_3*%
%TO.N,Net-(Fan1-Pin_1)*%
X115500000Y-92000000D03*
%TO.P,J1_GPIO4,4,Pin_4*%
%TO.N,Net-(J1-SDA{slash}GPIO2)*%
X117000000Y-92000000D03*
%TO.P,J1_GPIO4,5,Pin_5*%
%TO.N,Net-(J1-SCL{slash}GPIO3)*%
X118500000Y-92000000D03*
%TO.P,J1_GPIO4,6,Pin_6*%
%TO.N,Net-(J1-GCLK0{slash}GPIO4)*%
X120000000Y-92000000D03*
%TD*%
D16*
%TO.P,J4_GPIO22,1,Pin_1*%
%TO.N,unconnected-(J4_GPIO22-Pin_1-Pad1)*%
X119500000Y-130000000D03*
D15*
%TO.P,J4_GPIO22,2,Pin_2*%
%TO.N,Net-(Fan1-Pin_2)*%
X118000000Y-130000000D03*
%TO.P,J4_GPIO22,3,Pin_3*%
%TO.N,Net-(Fan1-Pin_1)*%
X116500000Y-130000000D03*
%TO.P,J4_GPIO22,4,Pin_4*%
%TO.N,Net-(J1-SDA{slash}GPIO2)*%
X115000000Y-130000000D03*
%TO.P,J4_GPIO22,5,Pin_5*%
%TO.N,Net-(J1-SCL{slash}GPIO3)*%
X113500000Y-130000000D03*
%TO.P,J4_GPIO22,6,Pin_6*%
%TO.N,Net-(J1-GPIO22)*%
X112000000Y-130000000D03*
%TD*%
D10*
%TO.P,M1_GPIO23,1,PWM*%
%TO.N,Net-(J1-GPIO23)*%
X140560000Y-124400000D03*
D11*
%TO.P,M1_GPIO23,2,+*%
%TO.N,Net-(Fan1-Pin_2)*%
X143100000Y-124400000D03*
%TO.P,M1_GPIO23,3,-*%
%TO.N,Net-(Fan1-Pin_1)*%
X145640000Y-124400000D03*
%TD*%
D10*
%TO.P,J1,1,3V3*%
%TO.N,Net-(J1-3V3-Pad1)*%
X97920000Y-83000000D03*
D11*
%TO.P,J1,2,5V*%
%TO.N,Net-(Fan1-Pin_2)*%
X97920000Y-85540000D03*
%TO.P,J1,3,SDA/GPIO2*%
%TO.N,Net-(J1-SDA{slash}GPIO2)*%
X100460000Y-83000000D03*
%TO.P,J1,4,5V*%
%TO.N,Net-(Fan1-Pin_2)*%
X100460000Y-85540000D03*
%TO.P,J1,5,SCL/GPIO3*%
%TO.N,Net-(J1-SCL{slash}GPIO3)*%
X103000000Y-83000000D03*
%TO.P,J1,6,GND*%
%TO.N,Net-(Fan1-Pin_1)*%
X103000000Y-85540000D03*
%TO.P,J1,7,GCLK0/GPIO4*%
%TO.N,Net-(J1-GCLK0{slash}GPIO4)*%
X105540000Y-83000000D03*
%TO.P,J1,8,GPIO14/TXD*%
%TO.N,unconnected-(J1-GPIO14{slash}TXD-Pad8)*%
X105540000Y-85540000D03*
%TO.P,J1,9,GND*%
%TO.N,Net-(Fan1-Pin_1)*%
X108080000Y-83000000D03*
%TO.P,J1,10,GPIO15/RXD*%
%TO.N,unconnected-(J1-GPIO15{slash}RXD-Pad10)*%
X108080000Y-85540000D03*
%TO.P,J1,11,GPIO17*%
%TO.N,Net-(J1-GPIO17)*%
X110620000Y-83000000D03*
%TO.P,J1,12,GPIO18/PWM0*%
%TO.N,unconnected-(J1-GPIO18{slash}PWM0-Pad12)*%
X110620000Y-85540000D03*
%TO.P,J1,13,GPIO27*%
%TO.N,Net-(J1-GPIO27)*%
X113160000Y-83000000D03*
%TO.P,J1,14,GND*%
%TO.N,Net-(Fan1-Pin_1)*%
X113160000Y-85540000D03*
%TO.P,J1,15,GPIO22*%
%TO.N,Net-(J1-GPIO22)*%
X115700000Y-83000000D03*
%TO.P,J1,16,GPIO23*%
%TO.N,Net-(J1-GPIO23)*%
X115700000Y-85540000D03*
%TO.P,J1,17,3V3*%
%TO.N,Net-(J1-3V3-Pad1)*%
X118240000Y-83000000D03*
%TO.P,J1,18,GPIO24*%
%TO.N,unconnected-(J1-GPIO24-Pad18)*%
X118240000Y-85540000D03*
%TO.P,J1,19,MOSI0/GPIO10*%
%TO.N,unconnected-(J1-MOSI0{slash}GPIO10-Pad19)*%
X120780000Y-83000000D03*
%TO.P,J1,20,GND*%
%TO.N,Net-(Fan1-Pin_1)*%
X120780000Y-85540000D03*
%TO.P,J1,21,MISO0/GPIO9*%
%TO.N,unconnected-(J1-MISO0{slash}GPIO9-Pad21)*%
X123320000Y-83000000D03*
%TO.P,J1,22,GPIO25*%
%TO.N,unconnected-(J1-GPIO25-Pad22)*%
X123320000Y-85540000D03*
%TO.P,J1,23,SCLK0/GPIO11*%
%TO.N,unconnected-(J1-SCLK0{slash}GPIO11-Pad23)*%
X125860000Y-83000000D03*
%TO.P,J1,24,~{CE0}/GPIO8*%
%TO.N,Net-(J1-~{CE0}{slash}GPIO8)*%
X125860000Y-85540000D03*
%TO.P,J1,25,GND*%
%TO.N,Net-(Fan1-Pin_1)*%
X128400000Y-83000000D03*
%TO.P,J1,26,~{CE1}/GPIO7*%
%TO.N,unconnected-(J1-~{CE1}{slash}GPIO7-Pad26)*%
X128400000Y-85540000D03*
%TO.P,J1,27,ID_SD/GPIO0*%
%TO.N,unconnected-(J1-ID_SD{slash}GPIO0-Pad27)*%
X130940000Y-83000000D03*
%TO.P,J1,28,ID_SC/GPIO1*%
%TO.N,unconnected-(J1-ID_SC{slash}GPIO1-Pad28)*%
X130940000Y-85540000D03*
%TO.P,J1,29,GCLK1/GPIO5*%
%TO.N,unconnected-(J1-GCLK1{slash}GPIO5-Pad29)*%
X133480000Y-83000000D03*
%TO.P,J1,30,GND*%
%TO.N,Net-(Fan1-Pin_1)*%
X133480000Y-85540000D03*
%TO.P,J1,31,GCLK2/GPIO6*%
%TO.N,unconnected-(J1-GCLK2{slash}GPIO6-Pad31)*%
X136020000Y-83000000D03*
%TO.P,J1,32,PWM0/GPIO12*%
%TO.N,unconnected-(J1-PWM0{slash}GPIO12-Pad32)*%
X136020000Y-85540000D03*
%TO.P,J1,33,PWM1/GPIO13*%
%TO.N,unconnected-(J1-PWM1{slash}GPIO13-Pad33)*%
X138560000Y-83000000D03*
%TO.P,J1,34,GND*%
%TO.N,Net-(Fan1-Pin_1)*%
X138560000Y-85540000D03*
%TO.P,J1,35,GPIO19/MISO1*%
%TO.N,unconnected-(J1-GPIO19{slash}MISO1-Pad35)*%
X141100000Y-83000000D03*
%TO.P,J1,36,GPIO16*%
%TO.N,unconnected-(J1-GPIO16-Pad36)*%
X141100000Y-85540000D03*
%TO.P,J1,37,GPIO26*%
%TO.N,unconnected-(J1-GPIO26-Pad37)*%
X143640000Y-83000000D03*
%TO.P,J1,38,GPIO20/MOSI1*%
%TO.N,unconnected-(J1-GPIO20{slash}MOSI1-Pad38)*%
X143640000Y-85540000D03*
%TO.P,J1,39,GND*%
%TO.N,Net-(Fan1-Pin_1)*%
X146180000Y-83000000D03*
%TO.P,J1,40,GPIO21/SCLK1*%
%TO.N,unconnected-(J1-GPIO21{slash}SCLK1-Pad40)*%
X146180000Y-85540000D03*
%TD*%
D12*
%TO.P,J3_GPIO27,6,Pin_6*%
%TO.N,Net-(J1-GPIO27)*%
X100000000Y-122500000D03*
%TO.P,J3_GPIO27,5,Pin_5*%
%TO.N,Net-(J1-SCL{slash}GPIO3)*%
X100000000Y-124000000D03*
%TO.P,J3_GPIO27,4,Pin_4*%
%TO.N,Net-(J1-SDA{slash}GPIO2)*%
X100000000Y-125500000D03*
%TO.P,J3_GPIO27,3,Pin_3*%
%TO.N,Net-(Fan1-Pin_1)*%
X100000000Y-127000000D03*
%TO.P,J3_GPIO27,2,Pin_2*%
%TO.N,Net-(Fan1-Pin_2)*%
X100000000Y-128500000D03*
D13*
%TO.P,J3_GPIO27,1,Pin_1*%
%TO.N,unconnected-(J3_GPIO27-Pin_1-Pad1)*%
X100000000Y-130000000D03*
%TD*%
D17*
%TO.N,Net-(J1-GCLK0{slash}GPIO4)*%
X98955100Y-80858600D03*
X101827000Y-81179800D03*
X97332400Y-81421700D03*
%TO.N,Net-(J1-~{CE0}{slash}GPIO8)*%
X127189000Y-98101100D03*
%TO.N,Net-(J1-GPIO27)*%
X99172200Y-115356600D03*
%TO.N,Net-(J1-SCL{slash}GPIO3)*%
X103106100Y-80104700D03*
X97317700Y-90793200D03*
%TO.N,Net-(J1-GPIO23)*%
X115550000Y-84642400D03*
%TO.N,Net-(J1-GPIO17)*%
X106935000Y-81179800D03*
X101313900Y-79500500D03*
X97518100Y-89384500D03*
%TD*%
D18*
%TO.N,Net-(Fan1-Pin_2)*%
X100460000Y-85540000D02*
X97920000Y-85540000D01*
X99786100Y-128500000D02*
X100000000Y-128500000D01*
X97968800Y-126682700D02*
X99786100Y-128500000D01*
X97968800Y-100195100D02*
X97968800Y-126682700D01*
X99663900Y-98500000D02*
X97968800Y-100195100D01*
X100000000Y-98500000D02*
X99663900Y-98500000D01*
X123057100Y-124640000D02*
X131800000Y-124640000D01*
X118000000Y-129697100D02*
X123057100Y-124640000D01*
X118000000Y-130000000D02*
X118000000Y-129697100D01*
X141848300Y-123148300D02*
X143100000Y-124400000D01*
X133291700Y-123148300D02*
X141848300Y-123148300D01*
X131800000Y-124640000D02*
X133291700Y-123148300D01*
%TO.N,Net-(Fan1-Pin_1)*%
X122050000Y-84270000D02*
X120780000Y-85540000D01*
X127130000Y-84270000D02*
X122050000Y-84270000D01*
X128400000Y-83000000D02*
X127130000Y-84270000D01*
X129670000Y-84270000D02*
X128400000Y-83000000D01*
X132210000Y-84270000D02*
X129670000Y-84270000D01*
X133480000Y-85540000D02*
X132210000Y-84270000D01*
X109350000Y-84270000D02*
X108080000Y-83000000D01*
X111890000Y-84270000D02*
X109350000Y-84270000D01*
X113160000Y-85540000D02*
X111890000Y-84270000D01*
X104270000Y-84270000D02*
X103000000Y-85540000D01*
X106810000Y-84270000D02*
X104270000Y-84270000D01*
X108080000Y-83000000D02*
X106810000Y-84270000D01*
X116500000Y-129812000D02*
X116500000Y-130000000D01*
X124212000Y-122100000D02*
X116500000Y-129812000D01*
X131800000Y-122100000D02*
X124212000Y-122100000D01*
X143340000Y-122100000D02*
X131800000Y-122100000D01*
X145640000Y-124400000D02*
X143340000Y-122100000D01*
X139830000Y-84270000D02*
X138560000Y-85540000D01*
X144910000Y-84270000D02*
X139830000Y-84270000D01*
X146180000Y-83000000D02*
X144910000Y-84270000D01*
X134731700Y-86791700D02*
X133480000Y-85540000D01*
X137308300Y-86791700D02*
X134731700Y-86791700D01*
X138560000Y-85540000D02*
X137308300Y-86791700D01*
X99808000Y-127000000D02*
X100000000Y-127000000D01*
X98470500Y-125662500D02*
X99808000Y-127000000D01*
X98470500Y-115066000D02*
X98470500Y-125662500D01*
X101267700Y-112268800D02*
X98470500Y-115066000D01*
X101267700Y-97999300D02*
X101267700Y-112268800D01*
X100268400Y-97000000D02*
X101267700Y-97999300D01*
X100000000Y-97000000D02*
X100268400Y-97000000D01*
D19*
%TO.N,Net-(J1-SDA{slash}GPIO2)*%
X99723500Y-95500000D02*
X100000000Y-95500000D01*
X98652300Y-94428800D02*
X99723500Y-95500000D01*
X98652300Y-92130600D02*
X98652300Y-94428800D01*
X100156000Y-90626900D02*
X98652300Y-92130600D01*
X115901200Y-90626900D02*
X100156000Y-90626900D01*
X117000000Y-91725700D02*
X115901200Y-90626900D01*
X117000000Y-92000000D02*
X117000000Y-91725700D01*
X104606600Y-125500000D02*
X100000000Y-125500000D01*
X110440200Y-131333600D02*
X104606600Y-125500000D01*
X113885200Y-131333600D02*
X110440200Y-131333600D01*
X115000000Y-130218800D02*
X113885200Y-131333600D01*
X115000000Y-130000000D02*
X115000000Y-130218800D01*
%TO.N,Net-(J1-GCLK0{slash}GPIO4)*%
X102166700Y-81519500D02*
X101827000Y-81179800D01*
X104059500Y-81519500D02*
X102166700Y-81519500D01*
X105540000Y-83000000D02*
X104059500Y-81519500D01*
X99276300Y-81179800D02*
X98955100Y-80858600D01*
X101827000Y-81179800D02*
X99276300Y-81179800D01*
X97114200Y-81421700D02*
X97332400Y-81421700D01*
X96592300Y-81943600D02*
X97114200Y-81421700D01*
X96592300Y-86105700D02*
X96592300Y-81943600D01*
X97918500Y-87431900D02*
X96592300Y-86105700D01*
X115697700Y-87431900D02*
X97918500Y-87431900D01*
X120000000Y-91734200D02*
X115697700Y-87431900D01*
X120000000Y-92000000D02*
X120000000Y-91734200D01*
%TO.N,Net-(J1-GPIO27)*%
X100000000Y-116184400D02*
X100000000Y-122500000D01*
X99172200Y-115356600D02*
X100000000Y-116184400D01*
%TO.N,Net-(J1-SCL{slash}GPIO3)*%
X100000000Y-94000000D02*
X101854300Y-94000000D01*
X118500000Y-92229700D02*
X118500000Y-92000000D01*
X116729700Y-94000000D02*
X118500000Y-92229700D01*
X101854300Y-94000000D02*
X116729700Y-94000000D01*
X106143400Y-122396800D02*
X101854300Y-122396800D01*
X113500000Y-129753400D02*
X106143400Y-122396800D01*
X113500000Y-130000000D02*
X113500000Y-129753400D01*
X101854300Y-94000000D02*
X101854300Y-122396800D01*
X100251100Y-124000000D02*
X100000000Y-124000000D01*
X101854300Y-122396800D02*
X100251100Y-124000000D01*
X95388900Y-88864400D02*
X97317700Y-90793200D01*
X95388900Y-81414300D02*
X95388900Y-88864400D01*
X98060600Y-78742600D02*
X95388900Y-81414300D01*
X101744000Y-78742600D02*
X98060600Y-78742600D01*
X103106100Y-80104700D02*
X101744000Y-78742600D01*
%TO.N,Net-(J1-GPIO23)*%
X141873500Y-125713500D02*
X140560000Y-124400000D01*
X146207900Y-125713500D02*
X141873500Y-125713500D01*
X146951500Y-124969900D02*
X146207900Y-125713500D01*
X146951500Y-116791500D02*
X146951500Y-124969900D01*
X115700000Y-85540000D02*
X146951500Y-116791500D01*
%TO.N,Net-(J1-3V3-Pad1)*%
X115662800Y-80422800D02*
X118240000Y-83000000D01*
X103851100Y-80422800D02*
X115662800Y-80422800D01*
X103417500Y-80856400D02*
X103851100Y-80422800D01*
X102794800Y-80856400D02*
X103417500Y-80856400D01*
X102318300Y-80379900D02*
X102794800Y-80856400D01*
X99688300Y-80379900D02*
X102318300Y-80379900D01*
X99406600Y-80098200D02*
X99688300Y-80379900D01*
X98601300Y-80098200D02*
X99406600Y-80098200D01*
X98084100Y-80615400D02*
X98601300Y-80098200D01*
X98084100Y-82835900D02*
X98084100Y-80615400D01*
X97920000Y-83000000D02*
X98084100Y-82835900D01*
%TO.N,Net-(J1-GPIO17)*%
X108799800Y-81179800D02*
X110620000Y-83000000D01*
X106935000Y-81179800D02*
X108799800Y-81179800D01*
X101309300Y-79495900D02*
X101313900Y-79500500D01*
X98169200Y-79495900D02*
X101309300Y-79495900D01*
X95990600Y-81674500D02*
X98169200Y-79495900D01*
X95990600Y-87857000D02*
X95990600Y-81674500D01*
X97518100Y-89384500D02*
X95990600Y-87857000D01*
%TD*%
M02*
