M48
; DRILL file {KiCad 8.0.1} date 2024-09-23T21:18:46+0900
; FORMAT={-:-/ absolute / inch / decimal}
; #@! TF.CreationDate,2024-09-23T21:18:46+09:00
; #@! TF.GenerationSoftware,Kicad,Pcbnew,8.0.1
; #@! TF.FileFunction,Plated,1,2,PTH
FMAT,2
INCH
; #@! TA.AperFunction,Plated,PTH,ViaDrill
T1C0.0118
; #@! TA.AperFunction,Plated,PTH,ComponentDrill
T2C0.0287
; #@! TA.AperFunction,Plated,PTH,ComponentDrill
T3C0.0394
%
G90
G05
T1
X3.8314Y-3.5745
X3.832Y-3.2056
X3.8393Y-3.5191
X3.8959Y-3.1834
X3.9044Y-4.5416
X3.9887Y-3.1299
X4.0089Y-3.1961
X4.0593Y-3.1537
X4.21Y-3.1961
X4.5492Y-3.3324
X5.0074Y-3.8622
T2
X3.937Y-3.6417
X3.937Y-3.7008
X3.937Y-3.7598
X3.937Y-3.8189
X3.937Y-3.878
X3.937Y-3.937
X3.937Y-4.8228
X3.937Y-4.8819
X3.937Y-4.9409
X3.937Y-5.0
X3.937Y-5.0591
X3.937Y-5.1181
X4.4094Y-5.1181
X4.4291Y-3.622
X4.4685Y-5.1181
X4.4882Y-3.622
X4.5276Y-5.1181
X4.5472Y-3.622
X4.5866Y-5.1181
X4.6063Y-3.622
X4.6457Y-5.1181
X4.6654Y-3.622
X4.7047Y-5.1181
X4.7244Y-3.622
T3
X3.8551Y-3.2677
X3.8551Y-3.3677
X3.9551Y-3.2677
X3.9551Y-3.3677
X4.0551Y-3.2677
X4.0551Y-3.3677
X4.1551Y-3.2677
X4.1551Y-3.3677
X4.2551Y-3.2677
X4.2551Y-3.3677
X4.3551Y-3.2677
X4.3551Y-3.3677
X4.4551Y-3.2677
X4.4551Y-3.3677
X4.5551Y-3.2677
X4.5551Y-3.3677
X4.6551Y-3.2677
X4.6551Y-3.3677
X4.7551Y-3.2677
X4.7551Y-3.3677
X4.8551Y-3.2677
X4.8551Y-3.3677
X4.9551Y-3.2677
X4.9551Y-3.3677
X5.0551Y-3.2677
X5.0551Y-3.3677
X5.1551Y-3.2677
X5.1551Y-3.3677
X5.189Y-4.8071
X5.189Y-4.9071
X5.2551Y-3.2677
X5.2551Y-3.3677
X5.3551Y-3.2677
X5.3551Y-3.3677
X5.4551Y-3.2677
X5.4551Y-3.3677
X5.5339Y-4.8976
X5.5551Y-3.2677
X5.5551Y-3.3677
X5.6339Y-4.8976
X5.6551Y-3.2677
X5.6551Y-3.3677
X5.7339Y-4.8976
X5.7551Y-3.2677
X5.7551Y-3.3677
M30
